<?xml version="1.0" encoding="UTF-8" standalone="no"?>
<!-- Created with Inkscape (http://www.inkscape.org/) -->

<svg
   xmlns:dc="http://purl.org/dc/elements/1.1/"
   xmlns:cc="http://creativecommons.org/ns#"
   xmlns:rdf="http://www.w3.org/1999/02/22-rdf-syntax-ns#"
   xmlns:svg="http://www.w3.org/2000/svg"
   xmlns="http://www.w3.org/2000/svg"
   xmlns:sodipodi="http://sodipodi.sourceforge.net/DTD/sodipodi-0.dtd"
   xmlns:inkscape="http://www.inkscape.org/namespaces/inkscape"
   version="1.1"
   width="358.58578"
   height="273.41147"
   id="svg2"
   inkscape:version="0.92.3 (2405546, 2018-03-11)"
   sodipodi:docname="logo3.svg">
  <sodipodi:namedview
     pagecolor="#ffffff"
     bordercolor="#666666"
     borderopacity="1"
     objecttolerance="10"
     gridtolerance="10"
     guidetolerance="10"
     inkscape:pageopacity="0"
     inkscape:pageshadow="2"
     inkscape:window-width="1920"
     inkscape:window-height="1012"
     id="namedview7"
     showgrid="false"
     inkscape:zoom="3.0006767"
     inkscape:cx="221.89076"
     inkscape:cy="124.88767"
     inkscape:window-x="0"
     inkscape:window-y="0"
     inkscape:window-maximized="1"
     inkscape:current-layer="layer1" />
  <defs
     id="defs4" />
  <metadata
     id="metadata7">
    <rdf:RDF>
      <cc:Work
         rdf:about="">
        <dc:format>image/svg+xml</dc:format>
        <dc:type
           rdf:resource="http://purl.org/dc/dcmitype/StillImage" />
        <dc:title></dc:title>
      </cc:Work>
    </rdf:RDF>
  </metadata>
  <g
     transform="translate(-102.73478,-367.95278)"
     id="layer1"
     style="fill:#b71c1c;fill-opacity:1">
    <path
       d="m 215.12522,641.04328 c -7.12125,-1.35985 -29.64871,-4.91503 -36.31683,-5.73135 -19.12661,-2.34151 -42.54334,-1.93264 -59.82825,1.04463 -4.13666,0.71254 -7.60846,1.19142 -7.71513,1.0642 -0.42325,-0.50483 14.77627,-4.4512 22.88842,-5.94269 21.62038,-3.97508 44.02499,-4.3734 70.40197,-1.25163 4.76997,0.56453 11.35578,0.91884 14.63514,0.78736 5.03338,-0.20182 6.44046,-0.50356 9.03009,-1.93647 3.01505,-1.66831 3.1196,-1.81858 6.0993,-8.76664 2.93595,-6.84604 3.31826,-7.40574 12.10955,-17.72816 17.01941,-19.98359 26.69068,-26.57055 39.16863,-26.6772 5.36809,-0.0459 5.90569,0.0726 9.26269,2.04159 2.59468,1.52185 5.51872,4.28382 10.75238,10.15642 3.9537,4.43636 8.2815,8.69719 9.61733,9.4685 3.83779,2.21593 8.09627,1.54711 16.22131,-2.54768 7.77452,-3.91812 11.07185,-4.97303 18.49563,-5.91724 7.50323,-0.95432 10.01745,-1.95645 15.07554,-6.00892 5.90014,-4.72711 9.93408,-7.33582 19.76143,-12.77957 9.69756,-5.37186 35.39041,-18.73365 35.58223,-18.50486 0.0712,0.0849 -5.51469,3.78371 -12.41303,8.2196 -24.18752,15.55349 -31.57706,20.83873 -42.0708,30.09047 -4.42806,3.90397 -7.19607,5.07617 -17.30217,7.32714 -5.11255,1.13873 -7.43332,2.09749 -14.09309,5.82212 -4.38497,2.45239 -9.40772,4.80718 -11.16167,5.23286 -7.34985,1.7838 -13.13124,-1.05203 -22.5709,-11.07125 -8.56658,-9.09255 -10.20518,-10.26383 -14.35896,-10.26383 -9.72549,0 -19.13011,6.8922 -35.13346,25.74765 -6.00506,7.07528 -7.28993,8.96783 -9.40722,13.85643 -2.85609,6.59441 -5.85952,10.12575 -10.29582,12.10551 -4.66221,2.08056 -11.88666,3.03142 -16.43431,2.16301 z m -105.79986,-3.23937 c 0.39129,-0.18676 0.8588,-0.16379 1.03891,0.051 0.18012,0.21483 -0.14002,0.36764 -0.71143,0.33956 -0.63144,-0.031 -0.75989,-0.18422 -0.32748,-0.3906 z m -5.54815,-2.24216 c 5.52976,-8.25454 29.34585,-39.85616 35.98198,-47.74455 22.96583,-27.2996 62.5047,-61.02761 91.35627,-77.93005 11.10216,-6.50409 17.81236,-9.3791 27.17487,-11.64317 0.81172,-0.1963 1.71598,-1.68408 3.03112,-4.98717 3.24172,-8.14183 7.61244,-12.57219 19.20366,-19.46569 3.82951,-2.27747 7.35553,-4.68278 7.8356,-5.34514 0.48008,-0.66235 1.92066,-3.36927 3.20131,-6.01538 3.0412,-6.28387 5.7785,-9.74932 9.61126,-12.16799 4.08097,-2.57531 6.24239,-3.23329 13.41668,-4.08433 4.82598,-0.57246 7.30558,-1.29193 13.00901,-3.77462 17.25508,-7.51108 36.63891,-18.47507 83.4745,-47.21531 18.68488,-11.46581 31.85634,-19.00167 39.8401,-22.79395 7.38175,-3.50632 11.12342,-5.04306 10.29321,-4.22752 -5.95753,5.85225 -30.56059,26.36898 -49.81487,41.54108 -30.06726,23.69259 -51.84277,38.2236 -74.48629,49.70545 -10.71112,5.43129 -12.09949,5.92618 -20.03328,7.1408 -3.21654,0.49244 -6.41656,1.33947 -7.11115,1.88231 -0.69459,0.54283 -2.02656,2.60093 -2.95993,4.57353 -1.55574,3.28795 -1.69704,4.07502 -1.69704,9.45281 0,7.19012 0.68807,12.84392 2.77965,22.84016 0.88324,4.22124 1.49436,7.808 1.35806,7.97059 -0.41477,0.49471 -3.10423,-5.42302 -4.70421,-10.3509 -1.65846,-5.10796 -3.22779,-13.32696 -3.22779,-16.90474 0,-1.25954 -0.15074,-2.29007 -0.33497,-2.29007 -0.18425,0 -1.14349,0.84671 -2.13166,1.88156 -0.98818,1.03486 -5.23539,3.98524 -9.43826,6.55641 -9.75041,5.96493 -11.52828,7.8521 -13.36836,14.19014 -1.38759,4.77949 -1.39888,4.96614 -0.78885,13.04177 0.35448,4.69267 1.40429,12.01079 2.45728,17.12937 1.01112,4.91506 1.78293,9.00263 1.71514,9.08349 -0.0678,0.0809 -0.9389,-1.45819 -1.93579,-3.42009 -2.40727,-4.73754 -5.3973,-15.31121 -5.80603,-20.53187 -0.4322,-5.52039 -0.70075,-5.98609 -2.73007,-4.73442 -0.88496,0.54585 -3.90533,1.4617 -6.71194,2.03525 -2.80661,0.57354 -6.75612,1.62376 -8.77668,2.33381 -12.29744,4.32149 -34.23005,18.0415 -61.98414,38.77436 -22.01423,16.44508 -38.41829,30.51972 -56.57262,48.5392 -5.51528,5.47431 -11.74095,11.57845 -13.83483,13.56477 -3.97416,3.77002 -14.75039,12.71552 -17.01992,14.12846 l -1.31345,0.81772 1.04243,-1.55608 z m 4.23953,0.85069 c 0.62554,-1.20723 25.18131,-20.40577 33.51191,-26.20075 4.38943,-3.05341 11.95091,-8.01767 16.80331,-11.03171 8.66482,-5.3821 27.56023,-16.06584 27.82753,-15.73408 0.19026,0.23613 -33.80732,23.59296 -55.59285,38.1931 -9.98713,6.69313 -19.2276,12.91177 -20.53439,13.81921 -1.30679,0.90744 -2.21377,1.33684 -2.01551,0.95423 z"
       id="path3066"
       style="fill:#ffffff;fill-opacity:1;stroke:none" />
  </g>
</svg>
